<svg xmlns="http://www.w3.org/2000/svg" viewBox="0 0 48 36">
  <rect width="48" height="36" fill="#fff"/>
  <rect y="24" width="48" height="4" fill="#e81b39"/>
  <rect y="32" width="48" height="4" fill="#e81b39"/>
  <polygon points="12,4 13.5,9 18.5,9 14.5,12 16,17 12,14 8,17 9.5,12 5.5,9 10.5,9" fill="#e81b39"/>
  <polygon points="24,4 25.5,9 30.5,9 26.5,12 28,17 24,14 20,17 21.5,12 17.5,9 22.5,9" fill="#e81b39"/>
  <polygon points="36,4 37.5,9 42.5,9 38.5,12 40,17 36,14 32,17 33.5,12 29.5,9 34.5,9" fill="#e81b39"/>
</svg>